<svg xmlns="http://www.w3.org/2000/svg" width="36" height="36" fill="none" viewBox="0 0 36 36">
  <path fill="#0154C5" fill-rule="evenodd" d="M12.627 4.876A2.625 2.625 0 0 1 15 3.375h6c1.048 0 1.952.614 2.373 1.501 1.025.008 1.825.055 2.538.334a4.884 4.884 0 0 1 2.14 1.634c.55.74.808 1.69 1.164 2.998l1.112 4.082.421 1.262.036.045c1.35 1.73.707 4.304-.58 9.452-.818 3.274-1.227 4.911-2.448 5.864-1.22.953-2.908.953-6.283.953h-6.946c-3.375 0-5.062 0-6.283-.953-1.22-.953-1.63-2.59-2.448-5.864-1.287-5.148-1.93-7.721-.58-9.452a3.92 3.92 0 0 1 .037-.045l.42-1.262 1.113-4.082c.356-1.307.614-2.257 1.164-2.998a4.875 4.875 0 0 1 2.14-1.634c.713-.28 1.512-.326 2.537-.334Zm.002 2.252c-.992.01-1.39.048-1.72.177-.46.18-.859.485-1.152.88-.264.356-.42.853-.856 2.453l-.854 3.133c1.53-.27 3.62-.27 6.48-.27h6.946c2.86 0 4.95 0 6.48.27l-.854-3.133c-.436-1.6-.591-2.097-.855-2.453a2.625 2.625 0 0 0-1.152-.88c-.33-.129-.728-.167-1.721-.177a2.625 2.625 0 0 1-2.37 1.497h-6a2.625 2.625 0 0 1-2.371-1.497Z" clip-rule="evenodd"/>
</svg>
