<svg xmlns="http://www.w3.org/2000/svg" width="579" height="457" fill="none" viewBox="0 0 579 457">
  <path fill="#000" d="M369.12 153.922c42.385 24.472 42.385 64.146 0 88.626-42.386 24.472-111.11 24.472-153.495 0-42.385-24.472-42.385-64.146 0-88.626 42.385-24.472 111.109-24.472 153.495 0Z" opacity=".1"/>
  <path fill="url(#a)" d="M405.668 194.14c-.235-13.197-9.074-26.346-26.509-36.411-35.356-20.413-92.684-20.413-128.041 0-17.653 10.195-26.492 23.547-26.509 36.907v12.621c.252 13.182 9.091 26.322 26.509 36.379 35.357 20.413 92.685 20.413 128.041 0 17.638-10.178 26.469-23.514 26.509-36.866v-12.63Z"/>
  <path fill="#F8FFFF" d="M379.159 157.729c35.357 20.413 35.357 53.505 0 73.927-35.356 20.413-92.676 20.413-128.04 0-35.357-20.414-35.357-53.514 0-73.927 35.356-20.413 92.684-20.413 128.04 0Z"/>
  <path fill="url(#b)" d="M377.942 157.924c34.682 20.024 34.682 52.49 0 72.522-34.683 20.024-90.923 20.024-125.606 0-34.682-20.024-34.682-52.49 0-72.522 34.683-20.024 90.923-20.024 125.606 0Z"/>
  <path fill="#BA531C" d="m340.288 105.709-.3 130.306-2.029.373.292-130.297 2.037-.382Zm-47.435.382-.3 130.305-2.037-.389.292-130.298 2.045.382Zm39.707.885-.292 130.297-2.094.259.3-130.305 2.086-.251Zm-31.914.251-.3 130.305-2.086-.259.292-130.297 2.094.251Zm24.009.536-.3 130.305-2.126.122.292-130.306 2.134-.121Zm-16.055.13-.3 130.297-2.118-.122.292-130.305 2.126.13Zm5.898.172-.297 130.305 2.135.005.297-130.305-2.135-.005Z"/>
  <path fill="url(#c)" d="m402.745 71.968-.3 130.306-12.078.284.301-130.306 12.077-.284Z"/>
  <path fill="url(#d)" d="m400.782 77.211-.293 130.306-12.069-.455.3-130.305 12.062.454Z"/>
  <path fill="url(#e)" d="m397.883 82.31-.3 130.304-11.899-1.185.292-130.305 11.907 1.185Z"/>
  <path fill="url(#f)" d="m394.084 87.195-.292 130.305-11.64-1.891.301-130.305 11.631 1.89Z"/>
  <path fill="url(#g)" d="m389.427 91.83-.292 130.305-11.25-2.589.3-130.297 11.242 2.58Z"/>
  <path fill="url(#h)" d="m383.956 96.156-.3 130.297-10.722-3.246.292-130.306 10.73 3.255Z"/>
  <path fill="url(#i)" d="m377.729 100.117-.3 130.305-10.081-3.888.292-130.305 10.089 3.888Z"/>
  <path fill="url(#j)" d="m370.822 103.688-.301 130.305-9.326-4.472.301-130.305 9.326 4.472Z"/>
  <path fill="url(#k)" d="m363.299 106.813-.292 130.305-8.466-5.008.292-130.305 8.466 5.008Z"/>
  <path fill="url(#l)" d="m355.264 109.467-.301 130.306-7.516-5.487.301-130.306 7.516 5.487Z"/>
  <path fill="url(#m)" d="m346.782 111.618-.3 130.306-6.494-5.909.301-130.306 6.493 5.909Z"/>
  <path fill="url(#n)" d="m337.957 113.25-.3 130.305-5.389-6.282.292-130.297 5.397 6.274Z"/>
  <path fill="url(#o)" d="m301.174 114.224-.301 130.305-.527-6.997.3-130.305.528 6.997Z"/>
  <path fill="url(#p)" d="m328.875 114.329-.301 130.305-4.22-6.566.3-130.305 4.221 6.566Z"/>
  <path fill="url(#q)" d="m310.385 114.816-.3 130.305-1.786-6.931.3-130.297 1.786 6.923Z"/>
  <path fill="url(#r)" d="m319.656 114.857-.301 130.305-3.019-6.794.292-130.305 3.028 6.794Z"/>
  <path fill="url(#s)" d="m238.894 67.642-.293 130.305-11.98-1.006.3-130.305 11.973 1.006Z"/>
  <path fill="url(#t)" d="m240.062 72.252-.293 130.306-12.085-.284.3-130.306 12.078.284Z"/>
  <path fill="url(#u)" d="m242.051 76.765-.3 130.297-12.054.455.301-130.305 12.053-.447Z"/>
  <path fill="url(#v)" d="m244.844 81.132-.301 130.305-11.891 1.177.301-130.305 11.891-1.177Z"/>
  <path fill="url(#w)" d="m248.415 85.312-.292 130.297-11.615 1.891.3-130.305 11.607-1.883Z"/>
  <path fill="url(#x)" d="m252.724 89.24-.292 130.306-11.217 2.589.3-130.305 11.209-2.59Z"/>
  <path fill="url(#y)" d="m257.732 92.901-.3 130.306-10.69 3.254.301-130.305 10.689-3.255Z"/>
  <path fill="url(#z)" d="m263.35 96.229-.292 130.305-10.04 3.888.292-130.297 10.04-3.896Z"/>
  <path fill="url(#A)" d="m269.534 99.216-.3 130.305-9.269 4.472.292-130.305 9.277-4.472Z"/>
  <path fill="url(#B)" d="m276.214 101.805-.3 130.305-8.393 5.008.293-130.305 8.4-5.008Z"/>
  <path fill="url(#C)" d="m283.333 103.98-.292 130.306-7.451 5.487.292-130.306 7.451-5.487Z"/>
  <path fill="url(#D)" d="m290.808 105.709-.292 130.298-6.42 5.917.292-130.306 6.42-5.909Z"/>
  <path fill="url(#E)" d="m298.552 106.976-.292 130.297-5.324 6.282.3-130.305 5.316-6.274Z"/>
  <path fill="url(#F)" d="m330.475 107.227-.3 130.305-.446 6.997.3-130.305.446-6.997Z"/>
  <path fill="url(#G)" d="m306.473 107.763-.292 130.305-4.156 6.566.293-130.305 4.155-6.566Z"/>
  <path fill="url(#H)" d="m322.52 107.885-.292 130.305-1.712 6.932.3-130.306 1.704-6.931Z"/>
  <path fill="url(#I)" d="m314.493 108.063-.292 130.305-2.955 6.786.3-130.297 2.947-6.794Z"/>
  <path fill="#FE9E0F" d="m226.922 66.636-.3 130.305-.065-.674.3-130.305.065.674Zm175.994 4.667-.3 130.305-.171.666.301-130.306.17-.665Zm-174.931.665-.3 130.305-.187-.665.3-130.298.187.658Zm173.088 4.595-.301 130.305-.284.649.292-130.305.293-.65Zm-171.076.649-.3 130.305-.301-.649.301-130.305.3.649Zm168.309 4.464-.3 130.305-.422.633.3-130.305.422-.633Zm-165.353.633-.301 130.305-.414-.633.292-130.305.423.633Zm161.668 4.294-.3 130.297-.528.6.292-130.305.536-.592Zm-157.813.592-.3 130.305-.528-.6.293-130.298.535.593ZM390.05 91.27l-.292 130.305-.625.56.292-130.305.625-.56Zm-148.535.56-.3 130.305-.625-.56.292-130.305.633.56Zm143.17 3.806-.3 130.297-.731.52.301-130.297.73-.52Zm-137.642.52-.301 130.305-.73-.528.292-130.297.739.52Zm131.499 3.49-.293 130.305-.819.471.3-130.305.812-.471Zm-125.232.479-.293 130.297-.828-.471.293-130.305.828.479Zm118.413 3.133-.301 130.305-.901.43.301-130.305.901-.43Zm-111.467.43-.292 130.305-.909-.422.292-130.305.909.422Zm104.024 2.76-.3 130.305-.974.365.292-130.305.982-.365Zm-96.467.365-.292 130.305-.982-.365.292-130.305.982.365Zm88.481 2.354-.3 130.297-1.031.309.3-130.306 1.031-.3Zm-80.412.3-.292 130.306-1.039-.301.292-130.305 1.039.3Zm71.978 1.916-.3 130.297-1.08.243.301-130.305 1.079-.235Zm-63.472.235-.292 130.305-1.096-.243.3-130.297 1.088.235Zm54.691 1.453-.301 130.306-1.12.178.301-130.305 1.12-.179Zm-45.844.179-.3 130.305-1.121-.178.301-130.306 1.12.179Zm36.792.974-.3 130.305-1.153.105.301-130.305 1.152-.105Zm-27.709.105-.292 130.305-1.153-.105.3-130.305 1.145.105Zm18.497.487-.301 130.306-1.16.04.3-130.305 1.161-.041Zm-9.268.041-.3 130.297-1.161-.032.3-130.306 1.161.041Z"/>
  <path fill="url(#J)" d="M404.231 51.279c-.236-12.987-8.929-25.933-26.087-35.836-34.796-20.088-91.216-20.088-126.012 0-17.378 10.033-26.071 23.182-26.095 36.33l.008 12.42c.252 12.97 8.945 25.9 26.087 35.802 34.796 20.089 91.216 20.089 126.012 0 17.353-10.024 26.054-23.149 26.095-36.282l-.008-12.434Z"/>
  <path fill="#F8FFFF" d="M378.144 15.435c34.796 20.09 34.796 52.661 0 72.758-34.796 20.089-91.215 20.089-126.012 0-34.796-20.088-34.796-52.66 0-72.758 34.797-20.097 91.216-20.088 126.012 0Z"/>
  <path fill="url(#K)" d="M376.952 15.63c34.139 19.707 34.139 51.663 0 71.378-34.139 19.716-89.486 19.708-123.625 0-34.139-19.707-34.139-51.662 0-71.378 34.139-19.707 89.486-19.707 123.625 0Z"/>
  <path fill="#F8FFFF" d="M354.679 27.675c21.842 12.606 21.842 33.052 0 45.665-21.842 12.605-57.247 12.605-79.089 0s-21.842-33.051 0-45.665c21.842-12.613 57.256-12.613 79.089 0Z"/>
  <path fill="url(#L)" d="M354.679 28.487c21.842 12.605 21.842 33.051 0 45.657-21.842 12.605-57.247 12.605-79.089 0-21.842-12.606-21.842-33.052 0-45.657 21.842-12.605 57.256-12.605 79.089 0Z"/>
  <path fill="url(#M)" d="M354.679 32.951c-21.842-12.613-57.247-12.613-79.08 0-9.935 5.739-15.333 13.092-16.234 20.6.893 7.508 6.291 14.862 16.234 20.6 21.842 12.606 57.247 12.606 79.089 0 9.934-5.738 15.332-13.092 16.233-20.6-.901-7.508-6.299-14.861-16.242-20.6Z"/>
  <path fill="#F8FFFF" d="M331.652 41.02c9.124 5.267 9.124 13.806 0 19.065-9.123 5.268-23.911 5.268-33.026 0-9.124-5.267-9.124-13.806 0-19.066 9.123-5.268 23.911-5.268 33.026 0Z"/>
  <path fill="url(#N)" d="M331.652 41.733c9.124 5.268 9.124 13.807 0 19.067-9.123 5.267-23.911 5.267-33.026 0-9.124-5.268-9.124-13.807 0-19.066 9.123-5.268 23.911-5.268 33.026 0Z"/>
  <path fill="#32414A" d="M331.653 49.014c-9.123-5.268-23.912-5.268-33.027 0-2.938 1.697-4.927 3.734-5.974 5.893 1.047 2.159 3.036 4.196 5.974 5.893 9.123 5.267 23.912 5.267 33.027 0 2.938-1.697 4.927-3.742 5.974-5.893-1.047-2.159-3.028-4.196-5.974-5.893Z"/>
  <path fill="#000" d="m322.213 257.491 114.316-66.005 116.977 52.604-146.871 84.795-79.706-35.843c-28.782-12.881-13.749-30.892-4.716-35.551Z" opacity=".1"/>
  <path fill="#414E52" d="m576.768 192.411-39.885 23.952-15.479-39.179 39.926-23.116 15.438 38.343Z"/>
  <path fill="#344145" d="m576.768 192.411-39.885 23.952 1.785 34.553 39.918-21.972-1.818-36.533Z"/>
  <path fill="#273438" d="m566.387 252.142-39.926 23.116 12.207-24.342 39.918-21.972-12.199 23.198Z"/>
  <path fill="#4E5B5F" d="m535.821 121.569-39.926 23.116 25.51 32.499 39.926-23.116-25.51-32.499Z"/>
  <path fill="#5B686C" d="m535.82 121.569-39.926 23.116-29.74-19.22 39.926-23.116 29.74 19.22Z"/>
  <path fill="#4E5B5F" d="m478.914 100.814-39.926 23.117 27.167 1.534 39.926-23.116-27.167-1.535Z"/>
  <path fill="url(#O)" d="M477.347 130.603c-17.516-10.114-33.359-10.934-44.706-4.075l-72.904 42.604c-10.69 6.778-17.257 20.519-17.257 39.821 0 39.853 27.979 88.318 62.499 108.244 16.688 9.635 31.85 10.836 43.059 5l73.781-43.059c11.136-6.599 18.019-20.535 18.019-40.291.008-39.853-27.97-88.31-62.491-108.244Z"/>
  <path fill="url(#P)" d="M342.488 208.961c0 39.853 27.978 88.318 62.499 108.244 16.688 9.635 31.85 10.836 43.059 5l17.118-9.967c4.513-7.638 7.061-17.751 7.061-30.032 0-41.614-29.212-92.213-65.25-113.025-11.72-6.769-22.718-9.545-32.231-8.782l-15 8.742c-10.689 6.769-17.256 20.519-17.256 39.82Z"/>
  <path fill="url(#Q)" d="M404.987 169.692c-17.297-9.991-33.027-11.298-44.707-5.349l-7.946 4.075c-12.086 6.696-19.578 21.428-19.586 42.507 0 41.614 29.212 92.214 65.258 113.025 16.899 9.756 32.305 11.225 43.895 5.747l8.166-4.164c12.426-6.542 20.17-21.404 20.17-42.824.008-41.606-29.212-92.214-65.25-113.017Z"/>
  <path fill="#2E383B" d="M463.264 286.281c0 41.614-29.22 58.481-65.258 37.678-36.038-20.804-65.258-71.411-65.25-113.025 0-41.615 29.22-58.481 65.258-37.678 36.038 20.803 65.258 71.402 65.25 113.025Z"/>
  <path fill="url(#R)" d="M460.505 284.682c0 39.853-27.978 56.005-62.499 36.078-34.512-19.926-62.498-68.391-62.498-108.244 0-39.853 27.978-56.005 62.498-36.078 34.521 19.926 62.507 68.391 62.499 108.244Z"/>
  <path fill="#2E383B" d="M456.398 282.312c0 37.239-26.144 52.328-58.392 33.708-32.247-18.619-58.383-63.894-58.383-101.126 0-37.231 26.144-52.328 58.391-33.708 32.248 18.611 58.384 63.894 58.384 101.126Z"/>
  <path fill="url(#S)" d="M449.692 278.44c0 32.962-23.14 46.322-51.687 29.837-28.546-16.477-51.687-56.557-51.687-89.519s23.141-46.322 51.687-29.837c28.555 16.485 51.696 56.557 51.687 89.519Z"/>
  <path fill="url(#T)" d="M446.544 276.622c0 30.949-21.729 43.497-48.53 28.019-26.801-15.471-48.53-53.108-48.53-84.057 0-30.949 21.729-43.489 48.53-28.019 26.801 15.471 48.53 53.108 48.53 84.057Z"/>
  <path fill="url(#U)" d="M444.701 275.558c0 29.781-20.908 41.842-46.695 26.956s-46.695-51.095-46.695-80.875 20.9-41.841 46.695-26.955c25.795 14.894 46.695 51.102 46.695 80.874Z"/>
  <path fill="url(#V)" d="M404.215 261.395c-8.466-4.886-15.325-16.769-15.325-26.55 0-3.1.69-5.617 1.908-7.451-5.552-.544-9.456 3.523-9.456 10.893 0 9.772 6.858 21.655 15.324 26.541 5.779 3.336 10.812 2.549 13.417-1.396-1.802-.178-3.782-.836-5.868-2.037Z"/>
  <path fill="#2E383B" d="M396.674 229.439c-2.078-1.201-4.066-1.866-5.868-2.045-1.218 1.834-1.908 4.351-1.908 7.451 0 9.773 6.859 21.655 15.325 26.55 2.078 1.201 4.066 1.867 5.876 2.045 1.218-1.834 1.908-4.35 1.908-7.451-.008-9.78-6.867-21.663-15.333-26.55Z"/>
  <path fill="url(#W)" d="M366.084 234.967c-2.679-1.542-4.846-5.3-4.846-8.393 0-1.282.374-2.24.999-2.816-1.551.032-2.614 1.29-2.614 3.458 0 3.092 2.167 6.85 4.846 8.392 1.566.909 2.962.844 3.847.025-.666.008-1.42-.195-2.232-.666Z"/>
  <path fill="#2E383B" d="M364.469 224.415c-.804-.462-1.559-.674-2.232-.657-.625.584-.999 1.542-.999 2.816 0 3.093 2.167 6.851 4.846 8.393.803.462 1.558.674 2.232.657.625-.584.998-1.542.998-2.816.009-3.093-2.167-6.851-4.845-8.393Z"/>
  <path fill="url(#X)" d="M375.523 214.123c-2.678-1.542-4.845-5.3-4.845-8.392 0-1.275.373-2.233.998-2.817-1.55.033-2.614 1.291-2.614 3.458 0 3.092 2.168 6.85 4.846 8.392 1.567.91 2.963.845 3.847.025-.673 0-1.428-.203-2.232-.666Z"/>
  <path fill="#2E383B" d="M373.9 203.564c-.803-.463-1.558-.674-2.232-.658-.625.585-.998 1.542-.998 2.817 0 3.092 2.167 6.85 4.846 8.392.803.463 1.558.674 2.232.658.625-.585.998-1.542.998-2.817 0-3.084-2.167-6.842-4.846-8.392Z"/>
  <path fill="url(#Y)" d="M398.291 216.372c-2.679-1.542-4.846-5.3-4.846-8.393 0-1.282.374-2.24.999-2.816-1.551.032-2.614 1.29-2.614 3.457 0 3.093 2.167 6.851 4.846 8.393 1.566.909 2.962.844 3.847.016-.674.016-1.428-.186-2.232-.657Z"/>
  <path fill="#2E383B" d="M396.676 205.82c-.804-.463-1.559-.674-2.232-.658-.625.585-.999 1.543-.999 2.817 0 3.092 2.167 6.85 4.846 8.393.804.462 1.558.673 2.232.657.625-.584.998-1.542.998-2.816 0-3.093-2.167-6.851-4.845-8.393Z"/>
  <path fill="url(#Z)" d="M421.057 240.413c-2.679-1.542-4.846-5.3-4.846-8.392 0-1.283.374-2.241.999-2.817-1.551.033-2.622 1.291-2.622 3.458 0 3.092 2.167 6.85 4.846 8.392 1.566.91 2.962.845 3.847.025-.658.008-1.412-.203-2.224-.666Z"/>
  <path fill="#2E383B" d="M419.443 229.861c-.803-.462-1.558-.673-2.232-.657-.625.584-.998 1.542-.998 2.816 0 3.093 2.167 6.851 4.846 8.393.803.463 1.558.674 2.232.658.625-.585.998-1.543.998-2.817 0-3.092-2.167-6.85-4.846-8.393Z"/>
  <path fill="url(#aa)" d="M430.498 272.158c-2.678-1.542-4.846-5.308-4.846-8.393 0-1.274.374-2.232.999-2.816-1.551.032-2.614 1.29-2.614 3.457 0 3.093 2.167 6.851 4.846 8.393 1.566.909 2.962.844 3.847.024-.674 0-1.428-.202-2.232-.665Z"/>
  <path fill="#2E383B" d="M428.875 261.598c-.804-.463-1.558-.674-2.232-.658-.625.585-.998 1.542-.998 2.817 0 3.092 2.167 6.85 4.845 8.392.804.463 1.559.674 2.232.658.625-.584.999-1.542.999-2.817.008-3.092-2.168-6.85-4.846-8.392Z"/>
  <path fill="url(#ab)" d="M421.059 293.001c-2.671-1.542-4.846-5.3-4.846-8.393 0-1.274.373-2.24.998-2.816-1.55.032-2.613 1.291-2.613 3.458 0 3.092 2.167 6.85 4.845 8.392 1.567.909 2.963.844 3.848.017-.666.016-1.421-.195-2.232-.658Z"/>
  <path fill="#2E383B" d="M419.443 282.45c-.803-.463-1.558-.674-2.232-.658-.625.585-.998 1.543-.998 2.817 0 3.092 2.167 6.85 4.846 8.393.803.462 1.566.673 2.232.657.625-.584.998-1.542.998-2.817 0-3.092-2.167-6.85-4.846-8.392Z"/>
  <path fill="url(#ac)" d="M398.291 290.745c-2.678-1.542-4.845-5.3-4.845-8.393 0-1.282.373-2.24.998-2.816-1.55.032-2.622 1.29-2.622 3.457 0 3.093 2.167 6.851 4.846 8.393 1.575.909 2.963.844 3.847.016-.665.016-1.42-.195-2.224-.657Z"/>
  <path fill="#2E383B" d="M396.676 280.193c-.804-.463-1.559-.674-2.232-.657-.625.584-.999 1.542-.999 2.816 0 3.092 2.167 6.851 4.846 8.393.804.462 1.558.673 2.232.657.625-.576.998-1.542.998-2.816 0-3.093-2.167-6.851-4.845-8.393Z"/>
  <path fill="url(#ad)" d="M375.516 266.711c-2.679-1.542-4.846-5.3-4.846-8.393 0-1.282.374-2.24.999-2.816-1.551.032-2.622 1.291-2.622 3.458 0 3.092 2.167 6.85 4.846 8.392 1.566.909 2.962.844 3.847.017-.658.008-1.412-.195-2.224-.658Z"/>
  <path fill="#2E383B" d="M373.9 256.151c-.803-.462-1.558-.673-2.232-.657-.625.584-.998 1.542-.998 2.817 0 3.092 2.167 6.85 4.846 8.392.803.463 1.558.674 2.232.658.625-.585.998-1.543.998-2.817 0-3.084-2.167-6.842-4.846-8.393Z"/>
  <path fill="#000" d="m333.592 292.068-119.745-69.3c-12.086-6.981-31.753-6.981-43.838 0l-3.328 1.915-47.653-27.345c-12.086-6.98-1.68 10.219-13.766 17.199l-95.38 56.379c-12.085 6.98-12.085 18.336 0 25.308l119.738 69.3c3.75 2.167 8.23 3.661 12.987 4.48l65.25 12.021c8.23.138 16.542-1.607 22.816-5.227l102.919-59.422c12.086-6.98 12.086-18.328 0-25.308Z" opacity=".1"/>
  <path fill="#687579" d="M227.386 370.759c-12.085 6.98-31.752 6.98-43.838 0L33.73 284.268c-12.085-6.981-12.085-18.336 0-25.308l102.92-59.422c12.086-6.981 31.752-6.981 43.838 0l149.81 86.499c12.085 6.98 12.085 18.336 0 25.308l-102.912 59.414Z"/>
  <path fill="url(#ae)" d="m330.297 311.337-102.919 59.422c-12.086 6.98-31.753 6.98-43.838 0L33.73 284.268c-5.9-3.409-8.912-7.857-9.05-12.33l-.008.009v6.225c.162 4.456 3.182 8.88 9.058 12.273l149.81 86.491c12.085 6.98 31.752 6.98 43.838 0l102.919-59.422c5.739-3.312 8.75-7.614 9.042-11.956v-6.185h-.008c-.276 4.35-3.287 8.652-9.034 11.964Z"/>
  <path stroke="#000" stroke-miterlimit="10" stroke-width=".203" d="M216.948 364.736c-6.331 3.653-16.631 3.653-22.962 0L44.168 278.237c-6.33-3.653-6.33-9.602 0-13.263l102.92-59.422c6.331-3.653 16.631-3.653 22.962 0l149.818 86.491c6.331 3.661 6.331 9.602 0 13.263l-102.92 59.43Z"/>
  <path fill="#2E383B" d="M53.9 224.935v14.09l-10.876 5.479s-5.828-4.692-3.604-9.578c2.224-4.894 14.48-9.991 14.48-9.991Z"/>
  <path fill="url(#af)" d="m319.86 257.629-149.81-86.5c-6.331-3.652-16.631-3.652-22.962 0l-9.732 5.617-1.737-1.007v34.431l1.737 1.007 9.732-5.617c6.331-3.653 16.631-3.653 22.962 0l140.881 81.337-.795-10.389 9.732-5.617c6.323-3.66 6.323-9.61-.008-13.262Z"/>
  <path fill="#C4CBCF" d="M320.248 268.4v-6.469l-5.495 3.182v-6.405l-5.52 3.19v-6.371l-5.527 3.19v-6.38l-5.519 3.19v-6.404l-5.528 3.189v-6.387l-5.519 3.189v-6.363l-5.528 3.19v-6.388l-5.519 3.198v-6.388l-5.519 3.198v-6.371l-5.528 3.189V230l-5.568 3.222v-6.42l-5.47 3.165v-6.323l-5.528 3.19v-6.404l-5.519 3.198v-6.388l-5.528 3.198v-6.379l-5.519 3.189v-6.379l-5.519 3.19v-6.356l-5.528 3.19v-6.396l-5.519 3.198v-6.38l-5.528 3.19v-6.412l-5.519 3.198v-6.372l-5.576 3.231v-6.388l-5.471 3.157v-6.371l-5.519 3.19v-6.356l-5.528 3.198v-6.42l-5.519 3.19v-6.356l-5.576 3.231v-6.412l-6.339 3.66v-6.371l-10.349 5.982v-6.404l-56.379 32.588-.43 22.029 172.983 106.442 49.65-28.668v-8.961l3.79-3.628v-26.274l-3.79 2.192Z"/>
  <path fill="#DEE5E9" d="m204.327 194.936-1.583-.909-62.068 35.835 1.583.917 62.068-35.843Zm5.519 3.189-1.574-.909-62.077 35.835 1.583.918 62.068-35.844Zm33.139 19.132-1.583-.909-62.068 35.835 1.575.917 62.076-35.843Zm-27.611-15.942-1.583-.909-62.068 35.835 1.574.918 62.077-35.844Zm22.084 12.752-1.575-.909-62.076 35.835 1.582.917 62.069-35.843Zm-5.52-3.182-1.583-.917-62.068 35.843 1.583.909 62.068-35.835Zm-5.519-3.19-1.583-.917-62.076 35.843 1.583.909 62.076-35.835Zm-5.526-3.19-1.583-.909-62.068 35.835 1.583.909 62.068-35.835Zm-56.095-31.379a23.393 23.393 0 0 0-2.394-.438l-60.388 34.861 1.582.909 61.2-35.332Zm6.396 2.679-1.144-.658c-.146-.089-.309-.162-.463-.243l-62.052 35.827 1.583.909 62.076-35.835Zm27.613 15.949-1.582-.917-62.069 35.843 1.575.909 62.076-35.835ZM98.079 205.269l56.37-32.548c-2.703.406-5.251 1.209-7.362 2.427l-50.59 29.212 1.582.909Zm89.681-19.895-1.582-.909-62.069 35.835 1.583.91 62.068-35.836Zm-11.046-6.379-1.583-.91-62.069 35.836 1.583.917 62.069-35.843Zm5.527 3.189-1.583-.909-62.076 35.836 1.583.917 62.076-35.844Zm11.039 6.38-1.575-.917-62.076 35.843 1.583.909 62.068-35.835Zm115.979 66.955-1.583-.909-62.076 35.835 1.582.917 62.077-35.843Zm-5.528-3.182-1.583-.917-62.068 35.835 1.583.917 62.068-35.835Zm-5.519-3.19-1.583-.917-62.068 35.835 1.574.917 62.077-35.835Zm16.566 9.561-1.583-.909-62.068 35.835 1.583.91 62.068-35.836Zm-22.094-12.751-1.574-.917-62.077 35.843 1.583.909 62.068-35.835Zm27.597 15.958c-.138-.09-.268-.179-.414-.268l-1.144-.658-62.069 35.835 1.583.909 62.044-35.818Zm-.414 12.986c2.103-1.217 3.499-2.694 4.197-4.245l-56.371 32.548 1.583.909 50.591-29.212Zm4.27-8.839a6.671 6.671 0 0 0-.763-1.379l-61.2 35.332 1.583.909 60.38-34.862Zm-64.586-39.236-1.582-.917-62.069 35.843 1.583.91 62.068-35.836Zm5.52 3.19-1.575-.917-62.076 35.843 1.583.909 62.068-35.835Zm-16.566-9.569-1.583-.909-62.068 35.835 1.582.917 62.069-35.843Zm5.527 3.19-1.583-.909-62.076 35.835 1.583.909 62.076-35.835Zm33.133 19.13-1.583-.909-62.068 35.836 1.574.909 62.077-35.836Zm-5.528-3.189-1.574-.91-62.077 35.836 1.583.917 62.068-35.843Zm-11.039-6.38-1.582-.909-62.069 35.835 1.575.917 62.076-35.843Zm5.52 3.19-1.583-.909-62.068 35.835 1.583.917 62.068-35.843Z"/>
  <path fill="#414E52" d="m321.606 271.889-9.732 5.617-1.737-1.006v34.431l1.737 1.006 9.732-5.617c3.636-2.102 5.454-4.87 5.454-7.629V264.26c0 2.768-1.818 5.535-5.454 7.629Z"/>
  <path fill="#2E383B" d="m311.874 311.938-1.737-1.007v-34.423l1.737.999v34.431Z"/>
  <path fill="#687579" d="m145.343 170.131-9.732 5.617 1.737 1.006 9.732-5.617c6.331-3.652 16.631-3.652 22.962 0l149.818 86.5c6.331 3.652 6.331 9.602 0 13.263l-9.732 5.616 1.737 1.007 9.732-5.617c7.273-4.196 7.273-11.071 0-15.267l-149.81-86.508c-7.272-4.205-19.171-4.205-26.444 0Z"/>
  <path fill="#2E383B" d="M269.276 302.108v34.423L93.014 234.772v-34.431l176.262 101.767Z"/>
  <path fill="#687579" d="m271.013 301.101-1.737 1.007L93.014 200.341l1.737-1.007 176.262 101.767Z"/>
  <path fill="#414E52" d="m271.012 335.533-1.737.998v-34.423l1.737-1.006v34.431Z"/>
  <path fill="#C4CBCF" d="M262.011 308.309v-6.38l-5.519 3.19v-6.371l-5.528 3.189v-6.404l-5.519 3.19v-6.396l-5.528 3.19v-6.355l-5.519 3.19v-6.396l-5.519 3.19v-6.315l-5.528 3.19v-6.388l-5.519 3.19v-6.437l-5.528 3.19v-6.396l-5.519 3.19v-6.274l-5.519 3.198v-6.437l-5.528 3.19v-6.436l-5.519 3.189v-6.387l-5.528 3.189v-6.274l-5.519 3.19v-6.437l-5.519 3.19v-6.355l-5.528 3.19v-6.404l-5.519 3.19v-6.388l-5.527 3.19v-6.339l-5.52 3.189v-6.363l-5.519 3.19v-6.396l-5.528 3.19v-6.356l-5.519 3.19v-6.396l-5.519 3.19v-6.388l-5.528 3.198v-6.371l-5.519 3.189v-6.379l-5.528 3.19v-6.372l-5.519 3.19v-6.412l-5.519 3.19v-6.38l-5.528 3.19v-6.372l-56.37 32.556 2.427 4.976-1.73.998 10.877 17.711 171.197 98.901 44.796-25.778v-30.511l-5.519 3.19Z"/>
  <path fill="#DEE5E9" d="m146.04 234.967-1.583-.909-62.068 35.835 1.574.917 62.077-35.843Zm5.519 3.19-1.583-.909-62.068 35.835 1.583.917 62.068-35.843Zm103.349 59.674-62.068 35.835 1.144.657c.146.081.309.154.463.236l62.044-35.819-1.583-.909Zm-92.302-53.295-1.583-.917-62.068 35.843 1.583.909 62.068-35.835Zm5.52 3.19-1.575-.917-62.076 35.843 1.582.909 62.069-35.835Zm-11.047-6.379-1.575-.909-62.076 35.835 1.582.909 62.069-35.835Zm-22.086-12.752-1.583-.917-62.068 35.843 1.582.909 62.069-35.835Zm5.519 3.19-1.574-.917-62.077 35.835 1.583.917 62.068-35.835Zm33.141 19.131-1.583-.917-62.068 35.835 1.575.917 62.076-35.835Zm-71.792-41.452-1.583-.909-60.38 34.861c.195.471.439.934.763 1.38l61.2-35.332Zm3.937 2.273-62.044 35.827c.138.089.268.178.414.268l1.144.657 62.069-35.835-1.583-.917Zm23.675 13.668-1.582-.917-62.069 35.844 1.575.909 62.076-35.836Zm-16.574-9.569-1.575-.909-62.076 35.835 1.583.917 62.068-35.843Zm11.047 6.38-1.575-.909-62.076 35.835 1.583.909 62.068-35.835Zm-5.52-3.19-1.582-.909-62.069 35.835 1.575.917 62.076-35.843Zm-22.093-12.752-1.582-.909-50.592 29.204c-2.11 1.218-3.498 2.695-4.196 4.245l56.37-32.54Zm82.84 47.824-1.583-.91-62.069 35.836 1.583.917 62.069-35.843Zm66.273 38.262-1.583-.909-62.068 35.835 1.575.917 62.076-35.843Zm-11.047-6.372-1.583-.917-62.068 35.844 1.583.909 62.068-35.836Zm-5.519-3.189-1.583-.918-62.068 35.844 1.574.909 62.077-35.835Zm38.651 22.32-1.583-.909-56.37 32.548c2.695-.406 5.252-1.21 7.362-2.427l50.591-29.212Zm-44.179-25.511-1.574-.909-62.077 35.835 1.583.909 62.068-35.835Zm38.659 22.322-1.583-.909-61.199 35.34c.779.186 1.582.332 2.394.438l60.388-34.869Zm-11.046-6.38-1.574-.909-62.077 35.835 1.583.917 62.068-35.843Zm-11.046-6.372-1.575-.917-62.076 35.843 1.582.909 62.069-35.835Zm-49.7-28.701-1.582-.909-62.069 35.836 1.575.909 62.076-35.836Zm5.52 3.19-1.575-.909-62.076 35.835 1.583.91 62.068-35.836Zm-11.047-6.38-1.575-.909-62.076 35.836 1.583.909 62.068-35.836Zm27.613 15.942-1.574-.909-62.077 35.835 1.583.917 62.068-35.843Zm5.528 3.19-1.583-.909-62.068 35.835 1.582.917 62.069-35.843Zm-16.567-9.562-1.582-.917-62.069 35.843 1.575.909 62.076-35.835Zm5.52 3.19-1.583-.917-62.068 35.835 1.583.917 62.068-35.835Z"/>
  <path fill="#687579" d="m226.672 324.689-9.732 5.616c-6.331 3.653-16.631 3.653-22.962 0l-149.81-86.491c-6.331-3.652-6.331-9.602 0-13.263l9.732-5.616-1.737-1.007-9.732 5.617c-7.273 4.196-7.273 11.071 0 15.267l149.81 86.492c7.272 4.196 19.171 4.196 26.444 0l9.732-5.617-1.745-.998Z"/>
  <path fill="url(#ag)" d="M218.686 331.312c-7.273 4.196-19.172 4.196-26.444 0l-149.81-86.491c-3.4-1.965-5.21-4.505-5.43-7.094v34.439c.227 2.581 2.037 5.121 5.43 7.086l149.81 86.491c7.272 4.204 19.171 4.204 26.444 0l9.732-5.617v-34.431l-9.732 5.617Z"/>
  <path fill="#000" d="M435.611 346.255c-43.684-25.218-114.51-25.218-158.194 0-43.684 25.219-43.684 66.119 0 91.337 43.684 25.219 114.519 25.219 158.203 0 43.675-25.218 43.675-66.11-.009-91.337ZM414.2 430.092c-31.258 18.044-81.938 18.044-113.196 0-31.257-18.043-31.257-47.312 0-65.355 31.258-18.043 81.938-18.043 113.196 0 31.257 18.043 31.257 47.304 0 65.355Z" opacity=".1"/>
  <path fill="#2E383B" d="M468.126 389.322c-.268-14.918-10.259-29.788-29.967-41.168-39.966-23.075-104.77-23.075-144.745 0-19.959 11.526-29.95 26.623-29.975 41.728l.009 7.094c.284 14.903 10.267 29.756 29.966 41.128 39.975 23.075 104.779 23.075 144.745 0 19.935-11.51 29.926-26.591 29.975-41.672l-.008-7.11Zm-31.16 41.712c-39.309 22.694-103.041 22.694-142.35 0s-39.309-59.487 0-82.182c39.309-22.694 103.041-22.694 142.342 0 39.309 22.695 39.309 59.488.008 82.182Z"/>
  <path fill="#2E383B" d="M304.162 360.557c34.033-19.651 89.218-19.651 123.252 0 15.081 8.709 23.465 22.402 25.186 33.781 2.151-14.301-6.234-29.025-25.186-39.966-34.034-19.651-89.219-19.651-123.252 0-18.953 10.941-27.337 25.673-25.186 39.966 1.721-11.388 10.105-25.08 25.186-33.781Z"/>
  <path fill="#344145" d="M438.038 348.901c-39.82-22.986-104.372-22.986-144.192 0-39.813 22.986-39.813 60.266 0 83.253 39.82 22.986 104.372 22.986 144.192 0 39.821-22.995 39.821-60.267 0-83.253Zm-11.006 76.897c-33.733 19.48-88.439 19.48-122.18 0-33.733-19.48-33.733-51.062 0-70.542 33.741-19.48 88.439-19.48 122.172 0 33.749 19.48 33.749 51.062.008 70.542Z"/>
  <path fill="#BA531C" d="M302.529 351.466c35.023-20.219 91.8-20.219 126.823 0 17.394 10.049 26.144 23.189 26.258 36.355v-22.5c.357-13.514-8.401-31.168-26.258-41.484-35.023-20.219-91.8-20.219-126.823 0-17.224 9.943-25.973 27.004-26.258 40.039v24.034c.082-13.198 8.823-26.379 26.258-36.444Z"/>
  <path fill="#942D00" d="M336.448 311.54c-.6.122-1.201.26-1.802.39v27.629c.601-.13 1.194-.268 1.802-.39V311.54Zm-4.593 1.007c-.601.146-1.202.3-1.802.446v27.63c.6-.155 1.193-.309 1.802-.455v-27.621Zm9.187-1.843c-.6.098-1.201.211-1.802.317v27.629c.601-.106 1.193-.219 1.802-.317v-27.629Zm-13.773 3.028c-.601.162-1.202.341-1.802.511v27.629c.6-.17 1.193-.349 1.802-.511v-27.629Zm-4.594 1.372c-.601.194-1.201.381-1.802.576v27.629c.593-.203 1.201-.39 1.802-.576v-27.629Zm36.728-6.283c-.6.025-1.201.041-1.801.073v27.63c.6-.033 1.201-.049 1.801-.074v-27.629Zm-4.585.268c-.601.04-1.202.073-1.802.122v27.629c.6-.049 1.201-.081 1.802-.13v-27.621Zm-4.594.39c-.601.064-1.201.121-1.802.186v27.629c.601-.073 1.201-.129 1.802-.186v-27.629Zm-4.596.543c-.601.082-1.201.163-1.802.252v27.629c.601-.089 1.201-.17 1.802-.251v-27.63Zm-59.682 28.474a51.715 51.715 0 0 0-1.801 2.532v25.827a48.189 48.189 0 0 1 1.801-2.175v-26.184Zm9.18-9.521c-.609.495-1.217.998-1.802 1.517V357.7a51.805 51.805 0 0 1 1.802-1.364v-27.361Zm68.871-20.276c-.6.008-1.201.008-1.802.025v27.629c.601-.016 1.202-.016 1.802-.025v-27.629Zm-73.465 51.363v-26.907c-.616.633-1.225 1.258-1.802 1.907v26.655a59.588 59.588 0 0 1 1.802-1.655Zm-9.179-14.359a51.3 51.3 0 0 0-1.802 3.847v24.667a38.507 38.507 0 0 1 1.802-3.36v-25.154Zm32.142-27.247c-.608.251-1.201.519-1.802.779v27.629c.601-.26 1.194-.528 1.802-.779v-27.629Zm-4.593 2.045c-.609.292-1.202.592-1.802.893v27.629c.592-.3 1.193-.601 1.802-.893v-27.629Zm-4.596 29.991v-27.629c-.593.324-1.193.641-1.778.974-.008.008-.016.008-.024.016v27.629c.008 0 .016-.008.024-.016.585-.333 1.185-.649 1.778-.974Zm-4.584-24.91c-.617.406-1.21.836-1.802 1.258v27.524a72.945 72.945 0 0 1 1.802-1.185v-27.597Zm18.359-8.92c-.6.219-1.209.438-1.802.665v27.629c.593-.227 1.202-.446 1.802-.665v-27.629Zm114.785 9.375a55.343 55.343 0 0 0-1.802-1.177v27.637c.609.374 1.218.739 1.802 1.12v-27.58Zm-9.187-5.187c-.601-.292-1.193-.576-1.802-.86v27.629c.609.276 1.201.568 1.802.86V320.85Zm4.594 2.395c-.601-.333-1.194-.666-1.802-.991v27.63c.608.324 1.201.657 1.802.99v-27.629Zm-9.18-4.505c-.593-.252-1.201-.487-1.802-.731v27.629c.601.244 1.209.479 1.802.731V318.74Zm-50.502-10.033c-.601-.008-1.201-.024-1.802-.024v27.629l1.802.025v-27.63Zm45.908 8.215c-.592-.219-1.201-.439-1.802-.65v27.63c.601.211 1.202.43 1.802.649v-27.629Zm22.953 12.58a53.854 53.854 0 0 0-1.802-1.453v27.459c.617.438 1.21.893 1.802 1.339v-27.345Zm9.19 35.99v-26.185a52.876 52.876 0 0 0-1.802-2.337v26.484a59.796 59.796 0 0 1 1.802 2.038Zm-4.596-31.688a54.675 54.675 0 0 0-1.802-1.802v27.094a49.54 49.54 0 0 1 1.802 1.607v-26.899Zm9.189 13.141a53.924 53.924 0 0 0-1.801-3.368v25.6c.657.966 1.25 1.94 1.801 2.922v-25.154Zm-41.33-31.623c-.6-.194-1.193-.389-1.801-.576v27.629c.608.187 1.201.382 1.801.577v-27.63Zm-22.955-5.21c-.6-.082-1.201-.155-1.802-.228v27.629c.601.074 1.202.147 1.802.228v-27.629Zm-4.593-.56c-.601-.065-1.202-.122-1.802-.179v27.629c.6.057 1.201.114 1.802.179v-27.629Zm-9.18-.699c-.601-.024-1.201-.056-1.802-.073v27.629l1.802.074v-27.63Zm4.594.277a64.368 64.368 0 0 0-1.802-.122v27.629l1.802.122V309.13Zm27.548 4.805c-.6-.171-1.193-.349-1.801-.512v27.63c.608.162 1.201.34 1.801.511v-27.629Zm-13.775-3.117c-.601-.098-1.201-.187-1.802-.284v27.629c.601.097 1.201.178 1.802.284v-27.629Zm9.182 1.907c-.601-.146-1.202-.292-1.802-.43v27.629c.6.138 1.201.284 1.802.43v-27.629Zm-4.596-1.039c-.601-.121-1.201-.235-1.802-.349v27.63c.601.113 1.201.227 1.802.349v-27.63Z"/>
  <path fill="#BA531C" d="m394.678 409.265-.34 28.846-2.338.439.341-28.847 2.337-.438Zm-54.486.438-.349 28.847-2.337-.439.341-28.846 2.345.438Zm45.616 1.015-.341 28.846-2.403.301.341-28.855 2.403-.292Zm-36.664.292-.341 28.847-2.403-.293.341-28.846 2.403.292Zm27.572.617-.341 28.847-2.443.138.341-28.847 2.443-.138Zm-18.44.146-.341 28.847-2.435-.146.341-28.847 2.435.146Zm9.229.203-.341 28.847h-2.451l.341-28.855 2.451.008Z"/>
  <path fill="url(#ah)" d="m466.413 370.508-.34 28.847-13.872.324.341-28.847 13.871-.324Z"/>
  <path fill="url(#ai)" d="m464.167 376.53-.341 28.855-13.855-.519.341-28.847 13.855.511Z"/>
  <path fill="url(#aj)" d="m460.838 382.39-.341 28.847-13.677-1.355.341-28.855 13.677 1.363Z"/>
  <path fill="url(#ak)" d="m456.47 388.007-.34 28.847-13.36-2.175.34-28.847 13.36 2.175Z"/>
  <path fill="url(#al)" d="m451.122 393.324-.341 28.855-12.914-2.979.341-28.847 12.914 2.971Z"/>
  <path fill="url(#am)" d="m444.832 398.291-.341 28.847-12.321-3.742.349-28.847 12.313 3.742Z"/>
  <path fill="url(#an)" d="m437.681 402.845-.341 28.846-11.582-4.464.341-28.847 11.582 4.465Z"/>
  <path fill="url(#ao)" d="m429.752 406.944-.341 28.846-10.714-5.138.341-28.846 10.714 5.138Z"/>
  <path fill="url(#ap)" d="m421.116 410.539-.341 28.847-9.732-5.755.341-28.847 9.732 5.755Z"/>
  <path fill="url(#aq)" d="m411.877 413.583-.34 28.846-8.637-6.298.341-28.847 8.636 6.299Z"/>
  <path fill="url(#ar)" d="m402.13 416.058-.341 28.847-7.451-6.794.341-28.846 7.451 6.793Z"/>
  <path fill="url(#as)" d="m392.001 417.925-.341 28.847-6.193-7.208.341-28.846 6.193 7.207Z"/>
  <path fill="url(#at)" d="m349.744 419.045-.341 28.847-.6-8.036.341-28.846.6 8.035Z"/>
  <path fill="url(#au)" d="m381.57 419.167-.341 28.847-4.854-7.54.341-28.847 4.854 7.54Z"/>
  <path fill="url(#av)" d="m360.33 419.735-.341 28.847-2.053-7.962.34-28.847 2.054 7.962Z"/>
  <path fill="url(#aw)" d="m370.979 419.776-.341 28.846-3.474-7.8.341-28.846 3.474 7.8Z"/>
  <path fill="url(#ax)" d="m278.214 365.54-.341 28.847-13.75-1.153.341-28.855 13.75 1.161Z"/>
  <path fill="url(#ay)" d="m279.552 370.832-.34 28.847-13.88-.316.349-28.855 13.871.324Z"/>
  <path fill="url(#az)" d="m281.832 376.019-.341 28.847-13.839.519.341-28.855 13.839-.511Z"/>
  <path fill="url(#aA)" d="m285.046 381.035-.341 28.847-13.66 1.355.341-28.846 13.66-1.356Z"/>
  <path fill="url(#aB)" d="m289.147 385.832-.341 28.847-13.327 2.175.34-28.847 13.328-2.175Z"/>
  <path fill="url(#aC)" d="m294.105 390.353-.341 28.847-12.881 2.979.341-28.855 12.881-2.971Z"/>
  <path fill="url(#aD)" d="m299.852 394.549-.341 28.855-12.288 3.734.341-28.847 12.288-3.742Z"/>
  <path fill="url(#aE)" d="m306.304 398.38-.34 28.847-11.534 4.472.341-28.854 11.533-4.465Z"/>
  <path fill="url(#aF)" d="m313.406 401.806-.341 28.846-10.657 5.138.349-28.846 10.649-5.138Z"/>
  <path fill="url(#aG)" d="m321.078 404.784-.341 28.847-9.651 5.755.349-28.847 9.643-5.755Z"/>
  <path fill="url(#aH)" d="m329.259 407.276-.341 28.855-8.555 6.307.341-28.847 8.555-6.315Z"/>
  <path fill="url(#aI)" d="m337.846 409.265-.341 28.846-7.378 6.794.349-28.847 7.37-6.793Z"/>
  <path fill="url(#aJ)" d="m346.742 410.718-.341 28.846-6.112 7.208.341-28.847 6.112-7.207Z"/>
  <path fill="url(#aK)" d="m383.405 411.01-.341 28.855-.511 8.027.341-28.847.511-8.035Z"/>
  <path fill="url(#aL)" d="m355.84 411.627-.341 28.847-4.78 7.548.349-28.855 4.772-7.54Z"/>
  <path fill="url(#aM)" d="m374.274 411.765-.341 28.846-1.964 7.963.341-28.847 1.964-7.962Z"/>
  <path fill="url(#aN)" d="m365.054 411.968-.341 28.855-3.393 7.792.341-28.847 3.393-7.8Z"/>
  <path fill="#FE9E0F" d="m264.463 364.379-.341 28.855-.081-.771.341-28.855.081.771Zm202.147 5.366-.341 28.846-.195.763.341-28.846.195-.763Zm-200.929.763-.349 28.855-.203-.763.341-28.847.211.755Zm198.817 5.275-.341 28.855-.333.747.341-28.855.333-.747Zm-196.503.747-.341 28.855-.349-.747.341-28.846.349.738Zm193.323 5.138-.341 28.847-.479.722.341-28.847.479-.722Zm-189.931.722-.341 28.847-.487-.722.349-28.847.479.722Zm185.693 4.927-.34 28.847-.609.69.341-28.847.608-.69Zm-181.261.69-.341 28.847-.617-.69.341-28.847.617.69Zm176.026 4.667-.341 28.855-.723.649.341-28.854.723-.65Zm-170.622.65-.34 28.854-.723-.649.341-28.855.722.65Zm164.444 4.366-.341 28.847-.836.601.341-28.847.836-.601Zm-158.103.601-.341 28.847-.836-.593.341-28.855.836.601Zm151.058 4.01-.341 28.846-.941.544.341-28.846.941-.544Zm-143.851.544-.341 28.854-.95-.552.341-28.846.95.544Zm136.011 3.612-.341 28.846-1.031.487.341-28.846 1.031-.487Zm-128.025.487-.349 28.846-1.039-.479.341-28.854 1.047.487Zm119.477 3.173-.34 28.847-1.121.422.341-28.847 1.12-.422Zm-110.8.422-.349 28.847-1.12-.422.341-28.847 1.128.422Zm101.621 2.695-.341 28.847-1.177.349.341-28.847 1.177-.349Zm-92.351.357-.341 28.847-1.201-.357.341-28.847 1.201.357Zm82.668 2.191-.341 28.847-1.242.276.341-28.847 1.242-.276Zm-72.896.276-.349 28.847-1.25-.276.341-28.847 1.258.276Zm62.807 1.664-.34 28.855-1.283.195.341-28.847 1.282-.203Zm-52.653.203-.341 28.847-1.291-.195.341-28.855 1.291.203Zm42.264 1.12-.341 28.847-1.323.122.341-28.847 1.323-.122Zm-31.826.122-.349 28.855-1.315-.13.341-28.847 1.323.122Zm21.241.56-.341 28.847-1.331.048.341-28.846 1.331-.049Zm-10.649.041-.341 28.847-1.331-.033.341-28.847 1.331.033Z"/>
  <path fill="#2E383B" d="M304.162 326.475c34.033-19.651 89.218-19.651 123.252 0 15.081 8.709 23.465 19.813 25.186 31.192 2.151-14.293-6.234-29.025-25.186-39.966-34.034-19.651-89.219-19.651-123.252 0-18.953 10.941-27.337 25.673-25.186 39.966 1.721-11.379 10.105-22.483 25.186-31.192Z"/>
  <path fill="#2E383B" d="M468.126 355.281c-.268-14.919-10.259-29.788-29.967-41.168-39.966-23.076-104.77-23.076-144.745 0-19.959 11.526-29.95 26.623-29.975 41.728l.009 6.85c.284 14.903 10.267 29.756 29.966 41.128 39.975 23.075 104.779 23.075 144.745 0 19.935-11.51 29.926-26.583 29.975-41.672l-.008-6.866Zm-31.16 41.711c-39.309 22.695-103.041 22.695-142.35 0-39.309-22.694-39.309-59.487 0-82.189 39.309-22.694 103.041-22.694 142.342 0 39.309 22.702 39.309 59.495.008 82.189Z"/>
  <path fill="#4E5B5F" d="M438.159 314.121c-39.966-23.075-104.77-23.075-144.744 0-39.975 23.076-39.975 60.494 0 83.57 39.974 23.075 104.778 23.075 144.744 0 39.975-23.076 39.975-60.494 0-83.57Zm-10.746 77.36c-34.033 19.651-89.219 19.651-123.26 0-34.033-19.65-34.033-51.516 0-71.167 34.033-19.65 89.219-19.65 123.252 0 34.049 19.659 34.049 51.517.008 71.167Z"/>
  <path fill="#344145" d="M433.029 317.075c-37.134-21.444-97.351-21.444-134.485 0-37.134 21.445-37.134 56.208 0 77.645 37.142 21.444 97.351 21.444 134.493 0 37.134-21.437 37.134-56.2-.008-77.645Zm-5.617 74.406c-34.033 19.651-89.218 19.651-123.26 0-34.033-19.65-34.033-51.517 0-71.167 34.034-19.651 89.219-19.651 123.252 0 34.05 19.659 34.05 51.517.008 71.167Z"/>
  <path fill="#4E5B5F" d="M428.931 319.446c-34.869-20.13-91.41-20.13-126.279 0-34.869 20.129-34.869 52.774 0 72.912 34.869 20.129 91.41 20.129 126.279 0 34.87-20.138 34.87-52.775 0-72.912Zm-1.517 72.035c-34.034 19.651-89.219 19.651-123.26 0-34.034-19.65-34.034-51.516 0-71.167 34.033-19.65 89.218-19.65 123.251 0 34.05 19.659 34.05 51.517.009 71.167Z"/>
  <path fill="#344145" d="M436.959 314.811c-39.309-22.694-103.033-22.694-142.342 0-39.31 22.694-39.31 59.496 0 82.19 39.309 22.694 103.041 22.694 142.35 0 39.301-22.703 39.301-59.496-.008-82.19Zm-2.224 80.899c-38.075 21.988-99.811 21.988-137.894 0-38.076-21.988-38.076-57.628 0-79.616 38.075-21.988 99.81-21.988 137.886 0 38.083 21.988 38.083 57.628.008 79.616Z"/>
  <path fill="#151F22" d="M294.617 315.972c39.309-22.694 103.041-22.694 142.342 0 19.399 11.201 29.22 25.835 29.472 40.51.26-15.064-9.561-30.178-29.472-41.671-39.309-22.694-103.033-22.694-142.342 0-19.91 11.493-29.723 26.607-29.472 41.671.252-14.675 10.073-29.309 29.472-40.51Z"/>
  <path fill="#4E5B5F" d="M434.734 316.094c-38.076-21.988-99.811-21.988-137.886 0-38.076 21.98-38.076 57.628 0 79.616 38.083 21.988 99.81 21.988 137.894 0 38.067-21.988 38.067-57.628-.008-79.616Zm-1.697 78.634c-37.142 21.444-97.351 21.444-134.493 0-37.134-21.444-37.134-56.208 0-77.644 37.134-21.444 97.351-21.444 134.485 0 37.142 21.436 37.142 56.2.008 77.644Z"/>
  <path fill="#151F22" d="M298.545 318.236c37.134-21.444 97.351-21.444 134.485 0 18.311 10.576 27.589 24.383 27.84 38.246.26-14.245-9.017-28.538-27.84-39.407-37.134-21.444-97.351-21.444-134.485 0-18.823 10.869-28.1 25.162-27.84 39.407.251-13.855 9.529-27.67 27.84-38.246Z"/>
  <defs>
    <linearGradient id="a" x1="405.325" x2="224.49" y1="200.681" y2="200.681" gradientUnits="userSpaceOnUse">
      <stop offset=".003" stop-color="#9EA5A9"/>
      <stop offset=".222" stop-color="#DEE5E9"/>
      <stop offset=".412" stop-color="#D1D8DC"/>
      <stop offset=".84" stop-color="#9EA5A9"/>
      <stop offset="1" stop-color="#6F7980"/>
    </linearGradient>
    <linearGradient id="b" x1="278.501" x2="407.432" y1="146.012" y2="315.532" gradientUnits="userSpaceOnUse">
      <stop stop-color="#C5CCD0"/>
      <stop offset="1" stop-color="#A8AFB3"/>
    </linearGradient>
    <linearGradient id="c" x1="390.367" x2="433.243" y1="137.261" y2="137.261" gradientUnits="userSpaceOnUse">
      <stop stop-color="#C95A1E"/>
      <stop offset="1" stop-color="#FE912A"/>
    </linearGradient>
    <linearGradient id="d" x1="388.422" x2="410.408" y1="142.138" y2="142.138" gradientUnits="userSpaceOnUse">
      <stop stop-color="#C95A1E"/>
      <stop offset="1" stop-color="#FE912A"/>
    </linearGradient>
    <linearGradient id="e" x1="385.68" x2="408.774" y1="146.869" y2="146.869" gradientUnits="userSpaceOnUse">
      <stop stop-color="#C95A1E"/>
      <stop offset="1" stop-color="#FE912A"/>
    </linearGradient>
    <linearGradient id="f" x1="382.155" x2="401.109" y1="151.404" y2="151.404" gradientUnits="userSpaceOnUse">
      <stop stop-color="#C95A1E"/>
      <stop offset="1" stop-color="#FE912A"/>
    </linearGradient>
    <linearGradient id="g" x1="377.888" x2="396.993" y1="155.691" y2="155.691" gradientUnits="userSpaceOnUse">
      <stop stop-color="#C95A1E"/>
      <stop offset="1" stop-color="#FE912A"/>
    </linearGradient>
    <linearGradient id="h" x1="372.931" x2="389.598" y1="159.678" y2="159.678" gradientUnits="userSpaceOnUse">
      <stop stop-color="#C95A1E"/>
      <stop offset="1" stop-color="#FE912A"/>
    </linearGradient>
    <linearGradient id="i" x1="367.347" x2="382.007" y1="163.328" y2="163.328" gradientUnits="userSpaceOnUse">
      <stop stop-color="#C95A1E"/>
      <stop offset="1" stop-color="#FE912A"/>
    </linearGradient>
    <linearGradient id="j" x1="361.199" x2="373.774" y1="166.604" y2="166.604" gradientUnits="userSpaceOnUse">
      <stop stop-color="#C95A1E"/>
      <stop offset="1" stop-color="#FE912A"/>
    </linearGradient>
    <linearGradient id="k" x1="354.537" x2="365.218" y1="169.464" y2="169.464" gradientUnits="userSpaceOnUse">
      <stop stop-color="#C95A1E"/>
      <stop offset="1" stop-color="#FE912A"/>
    </linearGradient>
    <linearGradient id="l" x1="347.447" x2="355.263" y1="171.878" y2="171.878" gradientUnits="userSpaceOnUse">
      <stop stop-color="#C95A1E"/>
      <stop offset="1" stop-color="#FE912A"/>
    </linearGradient>
    <linearGradient id="m" x1="339.991" x2="346.779" y1="173.817" y2="173.817" gradientUnits="userSpaceOnUse">
      <stop stop-color="#C95A1E"/>
      <stop offset="1" stop-color="#FE912A"/>
    </linearGradient>
    <linearGradient id="n" x1="332.265" x2="337.955" y1="175.262" y2="175.262" gradientUnits="userSpaceOnUse">
      <stop stop-color="#C95A1E"/>
      <stop offset="1" stop-color="#FE912A"/>
    </linearGradient>
    <linearGradient id="o" x1="300.347" x2="301.172" y1="175.878" y2="175.878" gradientUnits="userSpaceOnUse">
      <stop stop-color="#C95A1E"/>
      <stop offset="1" stop-color="#FE912A"/>
    </linearGradient>
    <linearGradient id="p" x1="324.353" x2="328.877" y1="176.196" y2="176.196" gradientUnits="userSpaceOnUse">
      <stop stop-color="#C95A1E"/>
      <stop offset="1" stop-color="#FE912A"/>
    </linearGradient>
    <linearGradient id="q" x1="308.302" x2="310.385" y1="176.506" y2="176.506" gradientUnits="userSpaceOnUse">
      <stop stop-color="#C95A1E"/>
      <stop offset="1" stop-color="#FE912A"/>
    </linearGradient>
    <linearGradient id="r" x1="316.334" x2="319.654" y1="176.612" y2="176.612" gradientUnits="userSpaceOnUse">
      <stop stop-color="#C95A1E"/>
      <stop offset="1" stop-color="#FE912A"/>
    </linearGradient>
    <linearGradient id="s" x1="226.625" x2="238.895" y1="132.291" y2="132.291" gradientUnits="userSpaceOnUse">
      <stop stop-color="#C95A1E"/>
      <stop offset="1" stop-color="#FE912A"/>
    </linearGradient>
    <linearGradient id="t" x1="227.683" x2="240.062" y1="137.261" y2="137.261" gradientUnits="userSpaceOnUse">
      <stop stop-color="#C95A1E"/>
      <stop offset="1" stop-color="#FE912A"/>
    </linearGradient>
    <linearGradient id="u" x1="229.7" x2="242.048" y1="142.139" y2="142.139" gradientUnits="userSpaceOnUse">
      <stop stop-color="#C95A1E"/>
      <stop offset="1" stop-color="#FE912A"/>
    </linearGradient>
    <linearGradient id="v" x1="240.5" x2="217.096" y1="146.872" y2="146.872" gradientUnits="userSpaceOnUse">
      <stop stop-color="#C95A1E"/>
      <stop offset="1" stop-color="#FE912A"/>
    </linearGradient>
    <linearGradient id="w" x1="248.244" x2="220.468" y1="151.406" y2="151.406" gradientUnits="userSpaceOnUse">
      <stop stop-color="#C95A1E"/>
      <stop offset="1" stop-color="#FE912A"/>
    </linearGradient>
    <linearGradient id="x" x1="252.59" x2="227.099" y1="155.689" y2="155.689" gradientUnits="userSpaceOnUse">
      <stop stop-color="#C95A1E"/>
      <stop offset="1" stop-color="#FE912A"/>
    </linearGradient>
    <linearGradient id="y" x1="257.617" x2="236.518" y1="159.68" y2="159.68" gradientUnits="userSpaceOnUse">
      <stop stop-color="#C95A1E"/>
      <stop offset="1" stop-color="#FE912A"/>
    </linearGradient>
    <linearGradient id="z" x1="263.458" x2="243.488" y1="163.328" y2="163.328" gradientUnits="userSpaceOnUse">
      <stop stop-color="#C95A1E"/>
      <stop offset="1" stop-color="#FE912A"/>
    </linearGradient>
    <linearGradient id="A" x1="269.706" x2="257.271" y1="166.605" y2="166.605" gradientUnits="userSpaceOnUse">
      <stop stop-color="#C95A1E"/>
      <stop offset="1" stop-color="#FE912A"/>
    </linearGradient>
    <linearGradient id="B" x1="276.091" x2="267.48" y1="169.464" y2="169.464" gradientUnits="userSpaceOnUse">
      <stop stop-color="#C95A1E"/>
      <stop offset="1" stop-color="#FE912A"/>
    </linearGradient>
    <linearGradient id="C" x1="283.291" x2="275.258" y1="171.877" y2="171.877" gradientUnits="userSpaceOnUse">
      <stop stop-color="#C95A1E"/>
      <stop offset="1" stop-color="#FE912A"/>
    </linearGradient>
    <linearGradient id="D" x1="290.898" x2="284.309" y1="173.815" y2="173.815" gradientUnits="userSpaceOnUse">
      <stop stop-color="#C95A1E"/>
      <stop offset="1" stop-color="#FE912A"/>
    </linearGradient>
    <linearGradient id="E" x1="298.505" x2="292.64" y1="175.262" y2="175.262" gradientUnits="userSpaceOnUse">
      <stop stop-color="#C95A1E"/>
      <stop offset="1" stop-color="#FE912A"/>
    </linearGradient>
    <linearGradient id="F" x1="329.732" x2="330.471" y1="175.879" y2="175.879" gradientUnits="userSpaceOnUse">
      <stop stop-color="#C95A1E"/>
      <stop offset="1" stop-color="#FE912A"/>
    </linearGradient>
    <linearGradient id="G" x1="306.792" x2="302.307" y1="176.198" y2="176.198" gradientUnits="userSpaceOnUse">
      <stop stop-color="#C95A1E"/>
      <stop offset="1" stop-color="#FE912A"/>
    </linearGradient>
    <linearGradient id="H" x1="322.822" x2="320.243" y1="176.504" y2="176.504" gradientUnits="userSpaceOnUse">
      <stop stop-color="#C95A1E"/>
      <stop offset="1" stop-color="#FE912A"/>
    </linearGradient>
    <linearGradient id="I" x1="314.397" x2="311.126" y1="176.61" y2="176.61" gradientUnits="userSpaceOnUse">
      <stop stop-color="#C95A1E"/>
      <stop offset="1" stop-color="#FE912A"/>
    </linearGradient>
    <linearGradient id="J" x1="403.899" x2="225.921" y1="57.714" y2="57.714" gradientUnits="userSpaceOnUse">
      <stop offset=".003" stop-color="#9EA5A9"/>
      <stop offset=".222" stop-color="#DEE5E9"/>
      <stop offset=".412" stop-color="#D1D8DC"/>
      <stop offset=".84" stop-color="#9EA5A9"/>
      <stop offset="1" stop-color="#6F7980"/>
    </linearGradient>
    <linearGradient id="K" x1="279.08" x2="405.973" y1="3.909" y2="170.75" gradientUnits="userSpaceOnUse">
      <stop stop-color="#DEE5E9"/>
      <stop offset="1" stop-color="#C1C8CC"/>
    </linearGradient>
    <linearGradient id="L" x1="261.141" x2="371.316" y1="51.321" y2="51.321" gradientUnits="userSpaceOnUse">
      <stop offset=".003" stop-color="#9EA5A9"/>
      <stop offset=".222" stop-color="#DEE5E9"/>
      <stop offset=".412" stop-color="#D1D8DC"/>
      <stop offset=".84" stop-color="#9EA5A9"/>
      <stop offset="1" stop-color="#6F7980"/>
    </linearGradient>
    <linearGradient id="M" x1="289.13" x2="363.09" y1="28.93" y2="98.942" gradientUnits="userSpaceOnUse">
      <stop stop-color="#DEE5E9"/>
      <stop offset="1" stop-color="#C1C8CC"/>
    </linearGradient>
    <linearGradient id="N" x1="292.589" x2="338.601" y1="51.27" y2="51.27" gradientUnits="userSpaceOnUse">
      <stop offset=".003" stop-color="#9EA5A9"/>
      <stop offset=".222" stop-color="#DEE5E9"/>
      <stop offset=".412" stop-color="#D1D8DC"/>
      <stop offset=".84" stop-color="#9EA5A9"/>
      <stop offset="1" stop-color="#6F7980"/>
    </linearGradient>
    <linearGradient id="O" x1="397.543" x2="483.566" y1="148.343" y2="297.339" gradientUnits="userSpaceOnUse">
      <stop stop-color="#4E5B5F"/>
      <stop offset=".128" stop-color="#5B686C"/>
      <stop offset=".152" stop-color="#5B686C"/>
      <stop offset=".307" stop-color="#5B686C"/>
      <stop offset=".93" stop-color="#273438"/>
    </linearGradient>
    <linearGradient id="P" x1="363.154" x2="451.246" y1="168.357" y2="320.938" gradientUnits="userSpaceOnUse">
      <stop stop-color="#354246"/>
      <stop offset=".128" stop-color="#424F53"/>
      <stop offset=".152" stop-color="#424F53"/>
      <stop offset=".307" stop-color="#424F53"/>
      <stop offset=".93" stop-color="#0E1B1F"/>
    </linearGradient>
    <linearGradient id="Q" x1="355.835" x2="448.004" y1="167.729" y2="327.37" gradientUnits="userSpaceOnUse">
      <stop stop-color="#4E5B5F"/>
      <stop offset=".128" stop-color="#5B686C"/>
      <stop offset=".152" stop-color="#5B686C"/>
      <stop offset=".307" stop-color="#5B686C"/>
      <stop offset=".93" stop-color="#273438"/>
    </linearGradient>
    <linearGradient id="R" x1="373.696" x2="424.454" y1="168.992" y2="335.167" gradientUnits="userSpaceOnUse">
      <stop stop-color="#DEE5E9"/>
      <stop offset="1" stop-color="#C1C8CC"/>
    </linearGradient>
    <linearGradient id="S" x1="424.331" x2="369.095" y1="309.398" y2="181.805" gradientUnits="userSpaceOnUse">
      <stop stop-color="#DEE5E9"/>
      <stop offset="1" stop-color="#C1C8CC"/>
    </linearGradient>
    <linearGradient id="T" x1="369.717" x2="426.568" y1="187.027" y2="310.743" gradientUnits="userSpaceOnUse">
      <stop stop-color="#DEE5E9"/>
      <stop offset="1" stop-color="#C1C8CC"/>
    </linearGradient>
    <linearGradient id="U" x1="351.321" x2="444.704" y1="248.602" y2="248.602" gradientUnits="userSpaceOnUse">
      <stop stop-color="#DEE5E9"/>
      <stop offset="1" stop-color="#C1C8CC"/>
    </linearGradient>
    <linearGradient id="V" x1="401.907" x2="382.606" y1="264.613" y2="230.214" gradientUnits="userSpaceOnUse">
      <stop stop-color="#ACB3B7"/>
      <stop offset="1" stop-color="#8F969A"/>
    </linearGradient>
    <linearGradient id="W" x1="366.624" x2="359.875" y1="236.707" y2="224.738" gradientUnits="userSpaceOnUse">
      <stop stop-color="#ACB3B7"/>
      <stop offset="1" stop-color="#8F969A"/>
    </linearGradient>
    <linearGradient id="X" x1="376.055" x2="369.306" y1="215.859" y2="203.888" gradientUnits="userSpaceOnUse">
      <stop stop-color="#ACB3B7"/>
      <stop offset="1" stop-color="#8F969A"/>
    </linearGradient>
    <linearGradient id="Y" x1="398.827" x2="392.079" y1="218.113" y2="206.144" gradientUnits="userSpaceOnUse">
      <stop stop-color="#ACB3B7"/>
      <stop offset="1" stop-color="#8F969A"/>
    </linearGradient>
    <linearGradient id="Z" x1="421.597" x2="414.849" y1="242.151" y2="230.182" gradientUnits="userSpaceOnUse">
      <stop stop-color="#ACB3B7"/>
      <stop offset="1" stop-color="#8F969A"/>
    </linearGradient>
    <linearGradient id="aa" x1="431.031" x2="424.282" y1="273.89" y2="261.921" gradientUnits="userSpaceOnUse">
      <stop stop-color="#ACB3B7"/>
      <stop offset="1" stop-color="#8F969A"/>
    </linearGradient>
    <linearGradient id="ab" x1="421.597" x2="414.849" y1="294.739" y2="282.769" gradientUnits="userSpaceOnUse">
      <stop stop-color="#ACB3B7"/>
      <stop offset="1" stop-color="#8F969A"/>
    </linearGradient>
    <linearGradient id="ac" x1="398.827" x2="392.078" y1="292.484" y2="280.514" gradientUnits="userSpaceOnUse">
      <stop stop-color="#ACB3B7"/>
      <stop offset="1" stop-color="#8F969A"/>
    </linearGradient>
    <linearGradient id="ad" x1="376.055" x2="369.307" y1="268.446" y2="256.476" gradientUnits="userSpaceOnUse">
      <stop stop-color="#ACB3B7"/>
      <stop offset="1" stop-color="#8F969A"/>
    </linearGradient>
    <linearGradient id="ae" x1="183.614" x2="227.353" y1="327.054" y2="327.054" gradientUnits="userSpaceOnUse">
      <stop stop-color="#2E383B"/>
      <stop offset="1" stop-color="#414E52"/>
    </linearGradient>
    <linearGradient id="af" x1="168.158" x2="148.831" y1="227.643" y2="227.643" gradientUnits="userSpaceOnUse">
      <stop stop-color="#2E383B"/>
      <stop offset="1" stop-color="#414E52"/>
    </linearGradient>
    <linearGradient id="ag" x1="192.241" x2="219.006" y1="303.306" y2="303.306" gradientUnits="userSpaceOnUse">
      <stop stop-color="#2E383B"/>
      <stop offset="1" stop-color="#414E52"/>
    </linearGradient>
    <linearGradient id="ah" x1="452.201" x2="501.454" y1="385.096" y2="385.096" gradientUnits="userSpaceOnUse">
      <stop stop-color="#C95A1E"/>
      <stop offset="1" stop-color="#FE912A"/>
    </linearGradient>
    <linearGradient id="ai" x1="449.967" x2="475.223" y1="390.699" y2="390.699" gradientUnits="userSpaceOnUse">
      <stop stop-color="#C95A1E"/>
      <stop offset="1" stop-color="#FE912A"/>
    </linearGradient>
    <linearGradient id="aj" x1="446.818" x2="473.344" y1="396.131" y2="396.131" gradientUnits="userSpaceOnUse">
      <stop stop-color="#C95A1E"/>
      <stop offset="1" stop-color="#FE912A"/>
    </linearGradient>
    <linearGradient id="ak" x1="442.769" x2="464.54" y1="401.341" y2="401.341" gradientUnits="userSpaceOnUse">
      <stop stop-color="#C95A1E"/>
      <stop offset="1" stop-color="#FE912A"/>
    </linearGradient>
    <linearGradient id="al" x1="437.864" x2="459.812" y1="406.265" y2="406.265" gradientUnits="userSpaceOnUse">
      <stop stop-color="#C95A1E"/>
      <stop offset="1" stop-color="#FE912A"/>
    </linearGradient>
    <linearGradient id="am" x1="432.173" x2="451.317" y1="410.845" y2="410.845" gradientUnits="userSpaceOnUse">
      <stop stop-color="#C95A1E"/>
      <stop offset="1" stop-color="#FE912A"/>
    </linearGradient>
    <linearGradient id="an" x1="425.761" x2="442.6" y1="415.038" y2="415.038" gradientUnits="userSpaceOnUse">
      <stop stop-color="#C95A1E"/>
      <stop offset="1" stop-color="#FE912A"/>
    </linearGradient>
    <linearGradient id="ao" x1="418.699" x2="433.144" y1="418.801" y2="418.801" gradientUnits="userSpaceOnUse">
      <stop stop-color="#C95A1E"/>
      <stop offset="1" stop-color="#FE912A"/>
    </linearGradient>
    <linearGradient id="ap" x1="411.046" x2="423.312" y1="422.084" y2="422.084" gradientUnits="userSpaceOnUse">
      <stop stop-color="#C95A1E"/>
      <stop offset="1" stop-color="#FE912A"/>
    </linearGradient>
    <linearGradient id="aq" x1="402.901" x2="411.877" y1="424.858" y2="424.858" gradientUnits="userSpaceOnUse">
      <stop stop-color="#C95A1E"/>
      <stop offset="1" stop-color="#FE912A"/>
    </linearGradient>
    <linearGradient id="ar" x1="394.337" x2="402.132" y1="427.085" y2="427.085" gradientUnits="userSpaceOnUse">
      <stop stop-color="#C95A1E"/>
      <stop offset="1" stop-color="#FE912A"/>
    </linearGradient>
    <linearGradient id="as" x1="385.464" x2="391.999" y1="428.746" y2="428.746" gradientUnits="userSpaceOnUse">
      <stop stop-color="#C95A1E"/>
      <stop offset="1" stop-color="#FE912A"/>
    </linearGradient>
    <linearGradient id="at" x1="348.8" x2="349.744" y1="429.453" y2="429.453" gradientUnits="userSpaceOnUse">
      <stop stop-color="#C95A1E"/>
      <stop offset="1" stop-color="#FE912A"/>
    </linearGradient>
    <linearGradient id="au" x1="376.375" x2="381.57" y1="429.821" y2="429.821" gradientUnits="userSpaceOnUse">
      <stop stop-color="#C95A1E"/>
      <stop offset="1" stop-color="#FE912A"/>
    </linearGradient>
    <linearGradient id="av" x1="357.939" x2="360.331" y1="430.175" y2="430.175" gradientUnits="userSpaceOnUse">
      <stop stop-color="#C95A1E"/>
      <stop offset="1" stop-color="#FE912A"/>
    </linearGradient>
    <linearGradient id="aw" x1="367.162" x2="370.977" y1="430.297" y2="430.297" gradientUnits="userSpaceOnUse">
      <stop stop-color="#C95A1E"/>
      <stop offset="1" stop-color="#FE912A"/>
    </linearGradient>
    <linearGradient id="ax" x1="264.12" x2="278.213" y1="379.386" y2="379.386" gradientUnits="userSpaceOnUse">
      <stop stop-color="#C95A1E"/>
      <stop offset="1" stop-color="#FE912A"/>
    </linearGradient>
    <linearGradient id="ay" x1="265.335" x2="279.554" y1="385.096" y2="385.096" gradientUnits="userSpaceOnUse">
      <stop stop-color="#C95A1E"/>
      <stop offset="1" stop-color="#FE912A"/>
    </linearGradient>
    <linearGradient id="az" x1="267.65" x2="281.836" y1="390.699" y2="390.699" gradientUnits="userSpaceOnUse">
      <stop stop-color="#C95A1E"/>
      <stop offset="1" stop-color="#FE912A"/>
    </linearGradient>
    <linearGradient id="aA" x1="280.056" x2="253.173" y1="396.136" y2="396.136" gradientUnits="userSpaceOnUse">
      <stop stop-color="#C95A1E"/>
      <stop offset="1" stop-color="#FE912A"/>
    </linearGradient>
    <linearGradient id="aB" x1="288.952" x2="257.046" y1="401.343" y2="401.343" gradientUnits="userSpaceOnUse">
      <stop stop-color="#C95A1E"/>
      <stop offset="1" stop-color="#FE912A"/>
    </linearGradient>
    <linearGradient id="aC" x1="293.944" x2="264.66" y1="406.263" y2="406.263" gradientUnits="userSpaceOnUse">
      <stop stop-color="#C95A1E"/>
      <stop offset="1" stop-color="#FE912A"/>
    </linearGradient>
    <linearGradient id="aD" x1="299.717" x2="275.482" y1="410.847" y2="410.847" gradientUnits="userSpaceOnUse">
      <stop stop-color="#C95A1E"/>
      <stop offset="1" stop-color="#FE912A"/>
    </linearGradient>
    <linearGradient id="aE" x1="306.426" x2="283.49" y1="415.039" y2="415.039" gradientUnits="userSpaceOnUse">
      <stop stop-color="#C95A1E"/>
      <stop offset="1" stop-color="#FE912A"/>
    </linearGradient>
    <linearGradient id="aF" x1="313.603" x2="299.319" y1="418.801" y2="418.801" gradientUnits="userSpaceOnUse">
      <stop stop-color="#C95A1E"/>
      <stop offset="1" stop-color="#FE912A"/>
    </linearGradient>
    <linearGradient id="aG" x1="320.938" x2="311.046" y1="422.085" y2="422.085" gradientUnits="userSpaceOnUse">
      <stop stop-color="#C95A1E"/>
      <stop offset="1" stop-color="#FE912A"/>
    </linearGradient>
    <linearGradient id="aH" x1="329.208" x2="319.981" y1="424.857" y2="424.857" gradientUnits="userSpaceOnUse">
      <stop stop-color="#C95A1E"/>
      <stop offset="1" stop-color="#FE912A"/>
    </linearGradient>
    <linearGradient id="aI" x1="337.946" x2="330.376" y1="427.083" y2="427.083" gradientUnits="userSpaceOnUse">
      <stop stop-color="#C95A1E"/>
      <stop offset="1" stop-color="#FE912A"/>
    </linearGradient>
    <linearGradient id="aJ" x1="346.684" x2="339.945" y1="428.746" y2="428.746" gradientUnits="userSpaceOnUse">
      <stop stop-color="#C95A1E"/>
      <stop offset="1" stop-color="#FE912A"/>
    </linearGradient>
    <linearGradient id="aK" x1="382.552" x2="383.402" y1="429.453" y2="429.453" gradientUnits="userSpaceOnUse">
      <stop stop-color="#C95A1E"/>
      <stop offset="1" stop-color="#FE912A"/>
    </linearGradient>
    <linearGradient id="aL" x1="356.201" x2="351.051" y1="429.821" y2="429.821" gradientUnits="userSpaceOnUse">
      <stop stop-color="#C95A1E"/>
      <stop offset="1" stop-color="#FE912A"/>
    </linearGradient>
    <linearGradient id="aM" x1="374.614" x2="371.653" y1="430.172" y2="430.172" gradientUnits="userSpaceOnUse">
      <stop stop-color="#C95A1E"/>
      <stop offset="1" stop-color="#FE912A"/>
    </linearGradient>
    <linearGradient id="aN" x1="364.941" x2="361.181" y1="430.295" y2="430.295" gradientUnits="userSpaceOnUse">
      <stop stop-color="#C95A1E"/>
      <stop offset="1" stop-color="#FE912A"/>
    </linearGradient>
  </defs>
</svg>
