<svg xmlns="http://www.w3.org/2000/svg" width="512" height="512" fill="none" viewBox="0 0 512 512">
  <g clip-path="url(#a)">
    <path fill="#F0F0F0" d="M256 512c141.385 0 256-114.615 256-256S397.385 0 256 0 0 114.615 0 256s114.615 256 256 256Z"/>
    <path fill="#0052B4" d="M52.92 100.142c-20.109 26.163-35.272 56.318-44.101 89.077h133.178L52.92 100.142Zm450.261 89.077c-8.829-32.758-23.993-62.913-44.101-89.076l-89.075 89.076h133.176ZM8.819 322.784c8.83 32.758 23.993 62.913 44.101 89.075l89.074-89.075H8.819ZM411.858 52.921C385.695 32.812 355.541 17.65 322.782 8.82v133.177l89.076-89.075ZM100.142 459.079c26.163 20.109 56.318 35.272 89.076 44.102V370.005l-89.076 89.074ZM189.217 8.82c-32.758 8.83-62.913 23.992-89.075 44.1l89.075 89.075V8.819Zm133.566 494.361c32.758-8.83 62.913-23.993 89.075-44.101l-89.075-89.075v133.176Zm47.222-180.397 89.075 89.076c20.108-26.162 35.272-56.318 44.101-89.076H370.005Z"/>
    <path fill="#D80027" d="M509.833 222.609H289.392V2.167A258.556 258.556 0 0 0 256 0c-11.319 0-22.461.744-33.391 2.167v220.441H2.167A258.556 258.556 0 0 0 0 256c0 11.319.744 22.461 2.167 33.391h220.441v220.442a258.35 258.35 0 0 0 66.783 0V289.392h220.442A258.533 258.533 0 0 0 512 256c0-11.317-.744-22.461-2.167-33.391Z"/>
    <path fill="#D80027" d="M322.783 322.784 437.019 437.02a256.636 256.636 0 0 0 15.048-16.435l-97.802-97.802h-31.482v.001Zm-133.566 0h-.002L74.98 437.019a256.636 256.636 0 0 0 16.435 15.048l97.802-97.804v-31.479Zm0-133.565v-.002L74.981 74.98a256.636 256.636 0 0 0-15.048 16.435l97.803 97.803h31.481v.001Zm133.566 0L437.02 74.981a256.328 256.328 0 0 0-16.435-15.047l-97.802 97.803v31.482Z"/>
  </g>
  <defs>
    <clipPath id="a">
      <path fill="#fff" d="M0 0h512v512H0z"/>
    </clipPath>
  </defs>
</svg>
