<svg xmlns="http://www.w3.org/2000/svg" width="48" height="48" fill="none" viewBox="0 0 48 48">
  <path fill="#E6F1FF" d="M2.686 24.127a21.132 21.132 0 1 0 42.264 0 21.132 21.132 0 0 0-42.264 0Z"/>
  <path fill="#025FCA" d="M34.52 11.892H19.017a3.453 3.453 0 0 0-3.454 3.454v3.333c0 .404-.206.78-.544.999l-4.901 3.146a2.27 2.27 0 0 0-1.042 1.906v6.878a2.267 2.267 0 0 0 2.266 2.266h.713c0-.01-.003-.02-.003-.032a4.3 4.3 0 0 1 4.3-4.3 4.3 4.3 0 0 1 4.302 4.3c0 .01-.003.02-.003.032h6.36l-.002-.032a4.3 4.3 0 0 1 4.3-4.3 4.3 4.3 0 0 1 4.302 4.3v.015a2.648 2.648 0 0 0 2.359-2.633V15.346a3.45 3.45 0 0 0-3.451-3.454ZM20.45 26.321c0 .974-.791 1.766-1.766 1.766h-3.943a1.447 1.447 0 0 1 0-2.894h2.815v-1.81a1.447 1.447 0 0 1 2.895 0v2.938Z"/>
  <path fill="#0373F3" d="M13.37 33.845a2.983 2.983 0 1 0 5.967 0 2.983 2.983 0 0 0-5.967 0Zm14.95 0a2.983 2.983 0 1 0 5.967 0 2.983 2.983 0 0 0-5.967 0Z"/>
  <path fill="#0373F3" d="M16.354 30.862a2.984 2.984 0 0 0-2.923 2.383c1.824.596 3.73.899 5.65.898.08 0 .16-.005.242-.008a2.98 2.98 0 0 0-2.969-3.274Z"/>
  <path fill="#0373F3" d="M34.52 11.892H19.018a3.453 3.453 0 0 0-3.454 3.454v3.333c0 .404-.206.78-.544.999l-4.901 3.146a2.27 2.27 0 0 0-1.042 1.906v6.415a17.985 17.985 0 0 0 3.113 1.641 4.297 4.297 0 0 1 8.465 1.056c0 .01-.003.02-.003.032h1.527a18.029 18.029 0 0 0 5.179-1.724 4.298 4.298 0 0 1 3.806-2.599c3.756-3.336 6.127-8.198 6.127-13.62 0-.996-.083-1.972-.237-2.923a3.435 3.435 0 0 0-2.534-1.116ZM20.45 26.321c0 .974-.791 1.766-1.766 1.766h-3.943a1.447 1.447 0 0 1 0-2.894h2.815v-1.81a1.447 1.447 0 0 1 2.895 0v2.938Z"/>
  <path fill="#3592FD" d="M19.018 11.892a3.453 3.453 0 0 0-3.454 3.454v3.333c0 .404-.206.78-.544.999l-4.901 3.146a2.27 2.27 0 0 0-1.042 1.906v2.239c1.51.432 3.07.667 4.642.698a1.447 1.447 0 0 1 1.022-2.472h2.815v-1.81a1.447 1.447 0 0 1 2.895 0v2.938c0 .075-.008.147-.015.221 6.204-2.304 10.808-7.889 11.71-14.65H19.018v-.002Z"/>
  <path fill="#68AEFD" d="M15.564 15.346v3.333c0 .403-.207.78-.545.999l-1.848 1.185c5.268-1.073 9.708-4.42 12.252-8.973h-6.406a3.456 3.456 0 0 0-3.453 3.456Z"/>
</svg>
