<svg xmlns="http://www.w3.org/2000/svg" width="48" height="48" fill="none" viewBox="0 0 48 48">
  <path fill="#E6F1FF" d="M2.77 23.887a21.132 21.132 0 1 0 42.264 0 21.132 21.132 0 0 0-42.264 0Z"/>
  <path fill="#025FCA" d="M35.827 19.709c-.403-5.969-5.489-10.704-11.68-10.704-6.169 0-11.233 4.694-11.677 10.627a4.647 4.647 0 0 0-2.824 4.27v4.761c0 2.559 2.08 4.64 4.639 4.64h1.788a1.68 1.68 0 0 0 1.68-1.68v-10.68c0-.93-.752-1.68-1.68-1.68h-.185c.605-3.898 4.077-6.898 8.256-6.898 4.18 0 7.651 2.998 8.258 6.897h-.338a1.68 1.68 0 0 0-1.68 1.68v10.68c0 .608.324 1.138.806 1.433-1.097 1.066-2.841 2.283-5.306 2.63a1.778 1.778 0 0 0-1.063-.352h-1.224a1.79 1.79 0 0 0 0 3.58h1.224c.53 0 1.005-.232 1.334-.6 4.685-.611 7.356-3.678 8.335-5.06a4.642 4.642 0 0 0 3.999-4.592V23.9a4.633 4.633 0 0 0-2.662-4.192Z"/>
  <path fill="#0373F3" d="M38.348 22.755a4.659 4.659 0 0 0-2.518-3.046c-.403-5.969-5.489-10.704-11.68-10.704-6.169 0-11.233 4.694-11.677 10.627a4.647 4.647 0 0 0-2.825 4.27v4.761a4.645 4.645 0 0 0 4.64 4.64h1.788a1.68 1.68 0 0 0 1.68-1.68v-10.68c0-.93-.752-1.68-1.68-1.68h-.188c.605-3.898 4.078-6.898 8.256-6.898 4.181 0 7.652 2.998 8.259 6.897h-.339a1.68 1.68 0 0 0-1.68 1.68v10.68c0 .221.044.43.12.622a21.204 21.204 0 0 0 7.844-9.49Z"/>
  <path fill="#3592FD" d="M24.146 9.005c-6.168 0-11.232 4.694-11.676 10.627a4.647 4.647 0 0 0-2.824 4.27v4.077a21.271 21.271 0 0 0 8.107-.25v-6.787a1.68 1.68 0 0 0-1.68-1.68h-.185c.605-3.897 4.077-6.897 8.256-6.897 3.346 0 6.235 1.92 7.567 4.685a21.087 21.087 0 0 0 1.558-3.756 11.79 11.79 0 0 0-9.123-4.29Z"/>
  <path fill="#68AEFD" d="M24.146 12.365c.154 0 .305.005.459.014a21.29 21.29 0 0 0 1.96-3.125 11.97 11.97 0 0 0-2.419-.25c-6.168 0-11.232 4.695-11.676 10.628a4.65 4.65 0 0 0-1.34.871 21.027 21.027 0 0 0 4.78-1.365c.66-3.838 4.1-6.773 8.236-6.773Z"/>
</svg>
