<svg xmlns="http://www.w3.org/2000/svg" width="48" height="48" fill="none" viewBox="0 0 48 48">
  <path fill="#E6F1FF" d="M2.784 23.914a21.132 21.132 0 1 0 42.264 0 21.132 21.132 0 0 0-42.264 0Z"/>
  <path fill="#0373F3" d="m24.03 21.854 12.47-7.183a3.343 3.343 0 0 0-.154-.096l-10.42-6.053a3.772 3.772 0 0 0-3.771-.01l-10.452 6c-.053.03-.103.063-.151.094l12.48 7.248Z"/>
  <path fill="#025FCA" d="m25.725 39.219.12-.063 10.452-6a3.77 3.77 0 0 0 1.894-3.259l.031-12.053c0-.06-.002-.117-.005-.177l-12.49 7.195v14.357h-.002Zm-3.45-14.39-12.46-7.24c-.002.06-.006.12-.006.183l-.032 12.05a3.773 3.773 0 0 0 1.877 3.27l10.42 6.052a3.1 3.1 0 0 0 .198.106V24.828h.002Z"/>
  <path fill="#0373F3" d="m9.809 17.772-.032 12.053a3.773 3.773 0 0 0 1.877 3.269l3.382 1.963c2.402.37 4.849.325 7.236-.132V24.828L9.816 17.59a2.363 2.363 0 0 0-.007.182Zm15.919 16.179a21.195 21.195 0 0 0 12.487-12.768l.01-3.339c0-.06-.003-.117-.005-.177l-12.492 7.197v9.087Z"/>
  <path fill="#3592FD" d="m9.81 17.772-.025 9.854c.888.113 1.79.173 2.71.173 3.53 0 6.857-.866 9.78-2.395v-.574L9.816 17.59a2.363 2.363 0 0 0-.007.182Zm20.286.588a21.027 21.027 0 0 0 2.708-5.842l-6.881-3.996a3.772 3.772 0 0 0-3.77-.01l-10.453 6c-.052.03-.103.063-.15.094l12.48 7.248 6.066-3.494Z"/>
  <path fill="#68AEFD" d="M25.922 8.522a3.772 3.772 0 0 0-3.77-.01l-10.452 6c-.053.03-.103.063-.151.094l5.568 3.233a21.223 21.223 0 0 0 8.973-9.22l-.168-.097Z"/>
</svg>
