<svg xmlns="http://www.w3.org/2000/svg" width="48" height="48" fill="none" viewBox="0 0 48 48">
  <path fill="#E6F1FF" d="M2.856 24.127a21.132 21.132 0 1 0 42.265 0 21.132 21.132 0 0 0-42.265 0Z"/>
  <path fill="#0373F3" d="m18.986 16.709 7.265-6.725c1.169-1.082 3.063-1.092 4.246-.021l4.71 4.267c.702.633.735 1.668.078 2.342l-16.299.137Z"/>
  <path fill="#68AEFD" d="m13.752 16.695 4.452-6.658c.787-1.253 2.455-1.774 3.902-1.22 1.09.418 2.11.812 2.079.812-.067 0-7.67 7.032-7.67 7.032l-2.763.034Z"/>
  <path fill="#025FCA" d="M35.139 18.852H13.133a3.819 3.819 0 0 0-3.819 3.819v9.988a3.819 3.819 0 0 0 3.819 3.819h22.006a3.819 3.819 0 0 0 3.818-3.819v-9.99a3.82 3.82 0 0 0-3.819-3.817ZM14.945 29.995a2.332 2.332 0 1 1-.001-4.664 2.332 2.332 0 0 1 0 4.664Z"/>
  <path fill="#0373F3" d="M13.133 18.852a3.819 3.819 0 0 0-3.819 3.819v9.988a3.819 3.819 0 0 0 3.819 3.819h15.125c5.069-3.86 8.342-9.958 8.342-16.822 0-.173-.002-.343-.007-.514a3.816 3.816 0 0 0-1.457-.287H13.133v-.003Zm1.812 11.143a2.332 2.332 0 1 1-.001-4.664 2.332 2.332 0 0 1 0 4.664Z"/>
  <path fill="#3592FD" d="M30.197 16.613a18.234 18.234 0 0 0 .54-6.432l-.242-.22c-1.184-1.071-3.075-1.062-4.246.02l-7.262 6.728 11.21-.096Zm-.463 2.24H13.133a3.819 3.819 0 0 0-3.819 3.817v9.99c0 .21.022.417.056.619.105.002.21.004.319.004 9.326-.002 17.242-6.045 20.045-14.43Zm-14.79 11.142a2.332 2.332 0 1 1 0-4.664 2.332 2.332 0 0 1 0 4.664Z"/>
  <path fill="#68AEFD" d="M21.288 16.687a19.2 19.2 0 0 0 2.82-4.723l-5.122 4.745 2.302-.022Zm-8.155 2.165a3.819 3.819 0 0 0-3.819 3.818v2.551a21.12 21.12 0 0 0 10.724-6.367h-6.905v-.002Z"/>
</svg>
