<svg xmlns="http://www.w3.org/2000/svg" width="48" height="48" fill="none" viewBox="0 0 48 48">
  <path fill="#025FCA" d="M6 26.074c0-2.206 0-3.31.785-3.953.28-.228.618-.41.996-.537 1.063-.354 2.461-.005 5.257.693 2.134.532 3.202.798 4.28.77.396-.01.79-.049 1.176-.117 1.05-.186 1.986-.653 3.858-1.587l2.765-1.38c2.398-1.197 3.597-1.795 4.973-1.933 1.377-.138 2.744.203 5.478.886l2.33.58c1.98.495 2.97.742 3.536 1.33.566.588.566 1.37.566 2.932v12.168c0 2.206 0 3.31-.785 3.953a3.126 3.126 0 0 1-.996.537c-1.063.354-2.461.005-5.257-.693-2.135-.532-3.202-.798-4.28-.77-.396.01-.79.049-1.176.117-1.05.186-1.986.653-3.858 1.587l-2.765 1.38c-2.398 1.197-3.597 1.795-4.973 1.933-1.377.138-2.744-.203-5.478-.886l-2.33-.58c-1.98-.495-2.97-.742-3.536-1.33C6 40.586 6 39.804 6 38.242V26.074Z" opacity=".5"/>
  <path fill="#025FCA" fill-rule="evenodd" d="M24 4c-6.627 0-12 5.104-12 11.4 0 6.248 3.83 13.537 9.806 16.144a5.51 5.51 0 0 0 4.388 0C32.17 28.937 36 21.648 36 15.401 36 9.104 30.627 4 24 4Zm0 16a4 4 0 1 0 0-8 4 4 0 0 0 0 8Z" clip-rule="evenodd"/>
</svg>
