<svg xmlns="http://www.w3.org/2000/svg" width="30" height="30" fill="none" viewBox="0 0 30 30">
  <path fill="#0154C5" fill-rule="evenodd" d="M30 15c0 8.284-6.716 15-15 15-8.284 0-15-6.716-15-15C0 6.716 6.716 0 15 0c8.284 0 15 6.716 15 15Zm-10.5-4.5a4.5 4.5 0 1 1-9 0 4.5 4.5 0 0 1 9 0ZM15 27.75c2.676 0 5.16-.824 7.21-2.233.906-.622 1.293-1.808.767-2.772-1.092-2-3.342-3.245-7.977-3.245-4.636 0-6.885 1.245-7.977 3.245-.526.964-.14 2.15.766 2.772A12.691 12.691 0 0 0 15 27.75Z" clip-rule="evenodd"/>
</svg>
